<svg xmlns="http://www.w3.org/2000/svg" viewBox="0 0 45 35.09"><title>logo</title><path d="M35.56,8.45l-.36,0a3.43,3.43,0,0,0-2.74,2.11,2.57,2.57,0,0,1,1.15-2.2L29.3,9.47a3.27,3.27,0,0,0-1.21.48c-1,.77-.85,2.4-1.6,3.45A5,5,0,0,1,27.73,10l-3,1.37a4.44,4.44,0,0,0-1.83,1.25c-.91,1.24-.35,3.13-1.21,4.41a5.2,5.2,0,0,1,.05-3.82,3.51,3.51,0,0,0-2.33,2c-.63,1.59,0,3-1.08,4.32a29.84,29.84,0,0,1,.55-4.23c-1.33.75-2.77,1.63-3.28,3.08-.4,1.14-.17,2.51-.91,3.47a20,20,0,0,1,.67-3.83,3.8,3.8,0,0,0-1.54,2.35,22.41,22.41,0,0,1-.76,2.78l.49-3.46a8.35,8.35,0,0,0-1.83,4.33l-.57-1.32a8.82,8.82,0,0,0,.14.91,1.38,1.38,0,0,1-.23,1.2,2.61,2.61,0,0,1-1.15.69A6.48,6.48,0,0,1,8.27,26c-.59.05-1.35,0-1.61.56a3.68,3.68,0,0,0,2.47-.14,16.29,16.29,0,0,1,1.74-.83C11,25.52,29.52,12,29.81,12,28.1,13.6,11.42,25.34,11.6,25.35c.62,0,1.79.24,2.06.26a6.12,6.12,0,0,0,3.15-.71c.5-.35,1-.64,1.57-.95a6.33,6.33,0,0,1-3.7-.3c1.28-.24,2.27.28,3.52-.07a6,6,0,0,0,1.67-.9L22.26,21a4.11,4.11,0,0,1-3.48,0,8,8,0,0,0,3.33-.32,7.8,7.8,0,0,0,1.58-.91l2.09-1.43A9.07,9.07,0,0,1,22.85,18c1-.3,2.2.09,3.26-.16a6.6,6.6,0,0,0,2.6-1.67,18.28,18.28,0,0,1,4-2.59,9.84,9.84,0,0,1-3.82-.18,11.42,11.42,0,0,0,6.2-1.06L32,11.72c1.08-.11,2.16.32,3.22.17a6,6,0,0,0,3.13-2A3.47,3.47,0,0,0,35.56,8.45Z" transform="translate(0 0.01)" style="fill:#d7d6d6"/><path d="M0,0H8.2V2.37H3.12V32.7H8.23v2.38H0Z" transform="translate(0 0.01)" style="fill:#3d3d3d"/><path d="M36.8,0H45V35.08H36.77V32.7h5.11V2.37H36.8Z" transform="translate(0 0.01)" style="fill:#3d3d3d"/><polygon points="35.78 6 35.78 5.11 28.25 5.11 28.25 6 31.12 6 31.12 23.65 16.23 5.11 9.22 5.11 9.22 6 12.46 6 12.46 29.09 9.74 29.09 9.74 29.98 17.19 29.98 17.19 29.09 14.06 29.09 14.06 9.57 30.64 29.98 32.02 29.98 32.72 29.98 35.26 29.98 35.26 29.09 32.72 29.09 32.72 6 35.78 6" style="fill:#3d3d3d"/></svg>