<svg xmlns="http://www.w3.org/2000/svg" viewBox="0 0 125.59 35.01"><title>logoDesktop</title><path d="M35.48,8.45a2.17,2.17,0,0,0-.36,0,3.4,3.4,0,0,0-2.73,2.1,2.57,2.57,0,0,1,1.14-2.2l-4.3,1.09a3.4,3.4,0,0,0-1.2.48c-1,.77-.85,2.4-1.6,3.44A4.94,4.94,0,0,1,27.67,10l-3,1.36a4.53,4.53,0,0,0-1.83,1.25c-.91,1.24-.35,3.12-1.21,4.4a5.22,5.22,0,0,1,0-3.81,3.52,3.52,0,0,0-2.32,2c-.64,1.59,0,3-1.08,4.31a30.23,30.23,0,0,1,.55-4.23c-1.33.76-2.77,1.64-3.28,3.08-.4,1.14-.17,2.51-.9,3.47a20.6,20.6,0,0,1,.66-3.83,3.83,3.83,0,0,0-1.53,2.35,23.6,23.6,0,0,1-.76,2.77l.49-3.45a8.35,8.35,0,0,0-1.83,4.32l-.57-1.32c0,.36.1.63.14.91a1.42,1.42,0,0,1-.22,1.2,2.69,2.69,0,0,1-1.16.69,6.76,6.76,0,0,1-1.65.41c-.6,0-1.36,0-1.61.55a3.71,3.71,0,0,0,2.46-.13,18.56,18.56,0,0,1,1.74-.84C11,25.47,29.46,12,29.75,12,28,13.58,11.39,25.3,11.58,25.31c.61,0,1.78.24,2,.26a6.18,6.18,0,0,0,3.16-.71c.49-.35,1-.64,1.56-1a6.29,6.29,0,0,1-3.69-.29c1.28-.24,2.26.28,3.51-.07a6,6,0,0,0,1.67-.9L22.21,21a4.15,4.15,0,0,1-3.48,0,8.12,8.12,0,0,0,3.33-.32,7.93,7.93,0,0,0,1.57-.91l2.09-1.43A9,9,0,0,1,22.8,18c1.05-.29,2.19.09,3.25-.16a6.67,6.67,0,0,0,2.6-1.67,17.91,17.91,0,0,1,4-2.57,9.84,9.84,0,0,1-3.82-.19,11.3,11.3,0,0,0,6.19-1.06l-3.13-.59c1.07-.12,2.15.32,3.21.16a6,6,0,0,0,3.12-2A3.42,3.42,0,0,0,35.48,8.45Z" style="fill:#d7d6d6"/><path d="M0,0H8.18V2.37H3.11V32.63h5.1V35H0Z" style="fill:#3d3d3d"/><path d="M36.71,0H44.9V35H36.68V32.63h5.1V2.37H36.71Z" style="fill:#3d3d3d"/><polygon points="35.7 5.99 35.7 5.09 28.19 5.09 28.19 5.99 31.05 5.99 31.05 23.6 16.19 5.09 9.2 5.09 9.2 5.99 12.44 5.99 12.44 29.02 9.72 29.02 9.72 29.92 17.15 29.92 17.15 29.02 14.03 29.02 14.03 9.55 30.57 29.92 31.94 29.92 32.65 29.92 35.18 29.92 35.18 29.02 32.65 29.02 32.65 5.99 35.7 5.99" style="fill:#3d3d3d"/><path d="M63.4,28a8,8,0,0,1-5.95,2.24,7.93,7.93,0,0,1-6-2.24,7.87,7.87,0,0,1-2.18-5.7,7.61,7.61,0,0,1,8.13-8,7.91,7.91,0,0,1,5.95,2.25,7.84,7.84,0,0,1,2.18,5.7A7.87,7.87,0,0,1,63.4,28Zm-5.95,1.49q3.79,0,3.8-7.19A13.29,13.29,0,0,0,60.41,17a3.32,3.32,0,0,0-5.92,0,13.29,13.29,0,0,0-.84,5.35Q53.65,29.51,57.45,29.51Z" style="fill:#3d3d3d"/><path d="M73.15,25.59a5.94,5.94,0,0,0,.45,2.67,1.86,1.86,0,0,0,1.82.85,3.65,3.65,0,0,0,2.71-1.72,5.17,5.17,0,0,0,1.34-3V15H77v-.66h6.44V28.92L86,29v.72l-6.39.37L79.75,27h-.31a5.71,5.71,0,0,1-5.24,3.21q-5,0-5-4.8c0-3.2.14-7.12.37-10.4H67.26v-.66h6.2C73.25,19.07,73.15,22.91,73.15,25.59Z" style="fill:#3d3d3d"/><path d="M93.27,29.48a2.47,2.47,0,0,0,1.8-.7,3.1,3.1,0,0,0,.72-2.29,2.13,2.13,0,0,0-1.06-1.93,12.65,12.65,0,0,0-2.07-1,19.14,19.14,0,0,1-1.93-.83,13.68,13.68,0,0,1-1.48-.9,3.55,3.55,0,0,1-1.59-3.05,3.85,3.85,0,0,1,1.6-3.18A7.54,7.54,0,0,1,94,14.37a6.11,6.11,0,0,1,3.27.83,2.41,2.41,0,0,1,1.34,2.07,1.9,1.9,0,0,1-1.06,1.81h0a2,2,0,0,1-1.47.1l-.64-.2a8.89,8.89,0,0,0,.19-1.76,2.28,2.28,0,0,0-.5-1.43,1.79,1.79,0,0,0-1.49-.64c-1.62,0-2.43,1-2.43,2.93a2.2,2.2,0,0,0,1,2,8.3,8.3,0,0,0,2,.95c.81.28,1.45.53,1.91.74a8.35,8.35,0,0,1,1.51.87,3.49,3.49,0,0,1,1.62,3.13A3.82,3.82,0,0,1,97.5,29,7.65,7.65,0,0,1,93,30.26a8.16,8.16,0,0,1-4.6-1,1.81,1.81,0,0,1-.88-1.53,1.91,1.91,0,0,1,.61-1.46,2.55,2.55,0,0,1,1.7-.59C90,28.2,91.11,29.48,93.27,29.48Z" style="fill:#3d3d3d"/><path d="M105.32,19.58a2.53,2.53,0,0,1-1.43.46,1.76,1.76,0,0,1-1.28-.5,1.93,1.93,0,0,1-.53-1.47,2.83,2.83,0,0,1,.59-1.76,3.48,3.48,0,0,1,1.53-1.16,8.88,8.88,0,0,1,3.48-.78c2.45,0,4.13.44,5,1.3a5.29,5.29,0,0,1,1.34,4V29l2.61.19v.68l-5.94.38-.28-2.62a5.28,5.28,0,0,1-5.05,2.65,4.22,4.22,0,0,1-2.79-1,3.4,3.4,0,0,1-1.16-2.76A3.86,3.86,0,0,1,103.79,23a14.48,14.48,0,0,1,6.51-1.2V19.11a6.58,6.58,0,0,0-.53-2.93,2,2,0,0,0-2-1,2.35,2.35,0,0,0-2.15,1.19,3.18,3.18,0,0,0-.47,1.65A8.67,8.67,0,0,0,105.32,19.58Zm5,3.05c-2.41,0-3.92.63-4.55,1.9a4.49,4.49,0,0,0-.4,2c0,1.39.48,2.2,1.43,2.43a1.78,1.78,0,0,0,.47.06,2.8,2.8,0,0,0,2-1,3.94,3.94,0,0,0,1.06-2.69Z" style="fill:#3d3d3d"/><path d="M125.59,29.92h-8V29.2h2V15H116.9v-.66h6.67V29.2h2Zm-1.8-20.64a2.36,2.36,0,0,1-4,1.65,2.25,2.25,0,0,1-.67-1.65,2.32,2.32,0,0,1,.69-1.68,2.27,2.27,0,0,1,3.3,0A2.31,2.31,0,0,1,123.79,9.28Z" style="fill:#3d3d3d"/></svg>